<?xml version="1.0" standalone="no"?>
<!DOCTYPE svg PUBLIC "-//W3C//DTD SVG 20010904//EN"
 "http://www.w3.org/TR/2001/REC-SVG-20010904/DTD/svg10.dtd">
<svg version="1.0" xmlns="http://www.w3.org/2000/svg"
 width="240.000000pt" height="60.000000pt" viewBox="0 0 240.000000 60.000000"
 preserveAspectRatio="xMidYMid meet">
<metadata>
Created by potrace 1.15, written by Peter Selinger 2001-2017
</metadata>
<g transform="translate(0.000000,60.000000) scale(0.100000,-0.100000)"
fill="#000000" stroke="none">
<path d="M1616 388 c-3 -13 -8 -67 -11 -120 -5 -82 -4 -98 8 -98 11 0 16 23
22 97 l7 97 30 -92 c17 -55 34 -92 42 -92 8 0 28 40 47 93 l34 92 5 -94 c3
-63 9 -96 18 -99 14 -4 16 73 6 177 -5 48 -10 61 -24 61 -11 0 -23 -20 -40
-67 -45 -131 -38 -129 -74 -28 -33 93 -60 121 -70 73z"/>
</g>
</svg>
